<?xml version="1.0" standalone="no"?>
<!DOCTYPE svg PUBLIC "-//W3C//DTD SVG 20010904//EN"
 "http://www.w3.org/TR/2001/REC-SVG-20010904/DTD/svg10.dtd">
<svg version="1.0" xmlns="http://www.w3.org/2000/svg"
 width="1024.000000pt" height="1024.000000pt" viewBox="0 0 1024.000000 1024.000000"
 preserveAspectRatio="xMidYMid meet">

<g transform="translate(0.000000,1024.000000) scale(0.100000,-0.100000)"
fill="#000000" stroke="none">
<path d="M4195 7654 c-79 -41 -129 -121 -130 -208 0 -34 4 -76 8 -94 7 -26 5
-33 -10 -39 -41 -15 -124 -77 -143 -107 -11 -18 -26 -67 -34 -109 -18 -91 -34
-124 -80 -165 -20 -17 -36 -36 -36 -41 0 -12 25 -21 62 -21 29 0 30 -1 23 -32
-4 -18 -9 -51 -10 -73 -1 -22 -10 -60 -20 -85 -9 -25 -30 -85 -45 -135 -16
-49 -46 -133 -68 -185 -21 -52 -54 -157 -71 -233 -18 -75 -44 -158 -58 -185
-73 -136 -83 -157 -83 -180 0 -35 71 -153 90 -149 8 1 18 19 23 39 7 29 13 37
29 35 32 -3 59 79 67 201 l7 103 71 137 c39 76 78 162 87 192 9 30 31 80 48
110 l32 55 13 -55 c11 -48 11 -64 -4 -123 -14 -56 -15 -72 -4 -88 10 -18 7
-34 -20 -112 -39 -115 -37 -182 10 -283 17 -36 31 -80 31 -98 0 -17 -14 -78
-30 -136 -17 -58 -37 -145 -45 -193 -20 -114 -29 -132 -84 -163 -117 -68 -171
-116 -261 -230 -49 -64 -90 -123 -90 -131 0 -20 -91 -123 -109 -123 -22 0
-107 -58 -141 -97 -31 -34 -31 -35 -14 -61 30 -45 231 -241 258 -252 15 -5 61
-12 104 -16 94 -8 122 3 122 46 0 31 -27 58 -79 79 -37 16 -48 46 -54 143 -5
67 -3 80 16 106 39 54 303 268 432 350 44 28 90 66 102 84 12 18 45 87 74 153
29 66 54 122 57 125 4 6 73 -71 108 -121 21 -30 28 -59 40 -160 16 -139 30
-191 84 -299 20 -41 45 -97 55 -123 10 -26 26 -52 36 -57 27 -15 49 -96 53
-197 4 -113 19 -143 71 -143 62 0 319 52 360 72 22 12 57 34 78 50 30 24 37
36 37 64 0 51 -30 66 -105 54 -32 -5 -70 -7 -84 -4 -73 16 -75 21 -32 81 36
49 104 80 217 98 53 9 104 25 146 47 34 18 66 34 70 36 3 2 9 -11 13 -28 5
-23 -1 -46 -24 -95 -17 -35 -31 -75 -31 -88 0 -28 35 -83 94 -147 23 -25 50
-57 61 -71 31 -39 57 -49 134 -49 88 0 101 5 101 40 0 37 -41 70 -87 70 -38 0
-72 30 -104 92 -32 62 -24 89 56 203 49 69 65 117 54 159 -5 17 -6 32 -4 34 2
2 28 -18 57 -46 61 -57 83 -70 129 -76 19 -3 54 -11 78 -17 38 -11 46 -10 56
4 11 15 13 14 25 -8 16 -29 7 -90 -16 -116 -14 -15 -15 -24 -6 -43 9 -21 8
-27 -14 -40 -13 -9 -24 -22 -24 -28 0 -6 -18 -27 -39 -47 -26 -25 -41 -48 -46
-74 -13 -69 29 -85 113 -43 26 13 75 36 110 52 73 32 87 52 98 142 3 34 9 62
13 62 25 -1 61 -57 61 -98 0 -36 21 -52 45 -32 13 10 15 8 15 -14 0 -16 5 -26
15 -26 8 0 15 4 15 8 0 5 6 17 14 27 13 18 13 14 9 -29 -6 -49 -6 -49 21 -42
18 4 26 2 26 -6 0 -7 14 -19 31 -27 27 -12 32 -12 40 0 6 11 19 3 53 -33 37
-37 54 -48 91 -53 58 -9 135 5 149 27 16 27 -22 69 -80 90 -55 20 -74 40 -111
113 -14 27 -53 79 -85 114 -63 67 -98 117 -98 140 0 7 11 22 25 33 14 11 38
42 54 69 15 27 31 46 34 43 11 -11 35 16 42 44 3 15 15 32 27 37 30 13 41 65
35 152 -5 68 -4 72 16 75 19 3 22 9 22 48 0 25 -4 61 -8 80 -5 24 -3 42 5 52
12 15 18 16 68 2 30 -7 73 -14 96 -14 25 0 47 -6 54 -16 20 -23 64 -14 68 14
6 40 -17 78 -61 103 l-42 23 32 7 c44 9 80 34 103 72 42 68 22 88 -103 102
-47 5 -66 13 -95 39 -21 18 -46 38 -57 43 -37 20 -104 25 -162 13 -54 -11 -64
-18 -145 -99 -67 -66 -88 -94 -88 -114 0 -40 -28 -49 -159 -49 -140 -1 -232
21 -366 86 -136 66 -208 125 -449 364 -201 199 -226 220 -276 237 -85 27 -127
51 -230 129 -52 40 -116 86 -141 103 -36 25 -52 46 -79 105 -18 40 -44 90 -57
110 -13 21 -23 46 -23 56 0 34 -68 204 -92 229 -13 14 -43 39 -68 56 -25 16
-46 31 -48 32 -1 1 3 15 9 32 10 29 13 31 62 29 52 -1 52 -1 74 43 12 24 31
54 41 65 14 15 20 39 22 86 5 130 2 190 -10 219 -37 90 -224 153 -315 105z
m193 -38 c26 -13 60 -38 76 -55 l30 -31 -29 -30 c-30 -32 -137 -90 -163 -90
-9 0 -26 10 -39 22 l-23 22 -45 -23 c-47 -23 -65 -46 -65 -80 0 -34 -16 -24
-28 18 -18 59 -14 102 14 159 57 115 157 147 272 88z m107 -198 c-5 -29 -8
-74 -7 -100 1 -28 -3 -48 -9 -48 -5 0 -22 -25 -36 -56 -25 -55 -26 -56 -59
-51 -19 3 -47 15 -63 26 -48 34 -71 20 -34 -21 14 -16 14 -24 4 -59 -7 -23
-10 -58 -6 -80 4 -21 3 -39 -2 -39 -5 0 -36 23 -68 50 -33 28 -70 53 -82 56
-13 4 -23 8 -23 10 0 3 12 23 28 46 25 39 27 49 25 130 -1 48 2 90 7 93 6 3
10 -1 10 -10 0 -18 43 -65 60 -65 15 0 12 31 -4 49 -19 21 -24 63 -9 68 6 2
17 -5 23 -16 20 -38 94 -21 195 43 22 14 44 26 49 26 5 0 5 -23 1 -52z m-360
-175 l-8 -28 -8 29 c-9 33 -2 53 13 38 6 -6 7 -22 3 -39z m-105 -14 c-21 -30
-32 -61 -37 -99 -5 -43 -13 -62 -43 -94 -21 -23 -47 -62 -58 -88 -15 -34 -27
-48 -41 -48 -18 0 -17 5 14 50 18 27 36 62 39 77 3 16 10 54 16 86 8 40 21 69
43 94 31 35 87 76 95 69 2 -2 -11 -23 -28 -47z m70 -15 c18 -45 11 -63 -32
-95 -42 -30 -43 -30 -46 -9 -5 29 4 58 28 98 24 39 37 41 50 6z m25 -144 c15
-6 52 -33 83 -60 66 -59 99 -65 109 -20 3 17 8 30 11 30 2 0 20 -10 40 -22 26
-16 43 -40 67 -92 43 -93 60 -144 53 -152 -13 -13 -28 9 -44 64 -16 57 -30 82
-44 82 -21 0 -17 -40 10 -121 l31 -89 -22 -77 c-24 -88 -28 -167 -15 -336 l9
-119 -39 20 c-88 44 -177 66 -264 67 -47 0 -95 -4 -107 -8 -28 -10 -30 7 -7
72 12 36 13 57 4 113 -9 58 -8 73 6 100 9 18 23 58 30 90 8 35 27 75 49 103
53 70 58 115 14 115 -23 0 -56 -50 -65 -97 -7 -39 -16 -41 -41 -10 -28 35 -65
57 -96 57 -25 0 -27 3 -21 23 17 57 36 90 64 114 18 14 44 51 58 82 35 73 71
92 127 71z m-184 -103 l-23 -22 17 28 c10 15 20 25 23 22 3 -3 -5 -16 -17 -28z
m483 -139 c9 -43 2 -45 -11 -3 -6 19 -8 35 -3 35 4 0 10 -14 14 -32z m-343
-81 c-25 -38 -28 -19 -4 26 9 18 18 26 20 19 3 -7 -5 -27 -16 -45z m-147 -3
c9 -3 16 -10 16 -14 0 -10 -38 -1 -46 11 -6 10 7 12 30 3z m625 -137 l56 -107
130 -98 c163 -122 173 -128 248 -157 101 -38 115 -46 143 -86 17 -25 24 -44
19 -58 -11 -36 -28 -24 -21 14 6 32 5 35 -34 55 -45 23 -80 19 -80 -10 0 -32
-30 -32 -57 0 -16 20 -74 54 -159 95 -211 100 -246 125 -305 212 l-50 75 15
46 c9 25 16 65 16 90 0 29 4 42 12 40 6 -2 37 -52 67 -111z m-619 85 c31 -16
35 -22 34 -55 -1 -24 -20 -75 -54 -140 -28 -56 -65 -139 -81 -183 -16 -45 -48
-115 -71 -155 -69 -123 -88 -179 -88 -263 0 -88 -5 -106 -32 -106 -13 0 -25
-14 -38 -42 -14 -31 -20 -37 -20 -21 0 30 -18 39 -35 17 -13 -17 -14 -15 -15
24 0 32 8 55 29 85 49 72 61 103 102 270 23 91 57 200 79 249 22 47 50 126 64
175 48 170 56 179 126 145z m80 -32 c0 -5 -2 -10 -4 -10 -3 0 -8 5 -11 10 -3
6 -1 10 4 10 6 0 11 -4 11 -10z m420 -77 c-11 -17 -11 -17 -6 0 3 10 6 24 7
30 0 9 2 9 5 0 3 -7 0 -20 -6 -30z m-449 -30 c-24 -46 -27 -31 -5 23 9 22 19
34 21 27 2 -6 -5 -29 -16 -50z m494 -119 c56 -78 104 -111 301 -205 105 -50
147 -75 164 -99 22 -31 22 -33 5 -68 -26 -53 -32 -179 -11 -220 18 -35 47 -48
75 -33 30 16 34 45 21 132 -13 80 -12 96 4 91 4 -1 25 3 45 10 20 6 42 13 49
14 29 5 42 14 42 29 0 8 5 15 11 15 6 0 79 -69 162 -153 160 -162 278 -257
387 -312 86 -43 207 -81 305 -94 72 -10 110 -21 73 -21 -8 0 -41 -11 -74 -24
-93 -37 -136 -39 -321 -15 -206 26 -304 22 -417 -17 -89 -30 -88 -31 -230 25
-88 33 -120 60 -176 142 -92 134 -216 192 -318 150 -35 -15 -43 -41 -13 -41
11 0 23 -4 26 -10 3 -5 1 -10 -4 -10 -17 0 -13 -27 5 -34 12 -4 13 -10 6 -19
-17 -20 13 -75 53 -98 37 -22 43 -39 7 -20 -12 6 -25 11 -31 11 -19 0 -12 -46
9 -65 11 -10 20 -29 20 -42 0 -26 70 -108 100 -118 12 -4 16 -12 13 -24 -5
-21 5 -26 78 -36 38 -6 46 -10 42 -25 -7 -25 54 -43 128 -38 l59 4 -24 -25
c-55 -59 -84 -139 -56 -156 6 -3 10 -25 10 -49 0 -23 4 -46 9 -51 6 -6 4 -22
-6 -43 -12 -25 -34 -42 -84 -68 -77 -38 -93 -58 -118 -141 l-18 -58 -22 35
c-12 19 -24 46 -27 60 -3 14 -19 70 -35 125 -43 146 -66 267 -74 380 -6 94
-11 112 -82 290 -41 105 -95 233 -119 287 l-44 96 15 104 c9 56 21 120 27 140
11 36 8 107 -8 286 -5 48 -3 72 4 72 5 0 31 -30 57 -66z m-204 -247 c77 -25
123 -46 103 -47 -6 0 -30 7 -55 15 -24 8 -96 21 -159 30 -148 22 -176 37 -55
32 59 -3 116 -13 166 -30z m-110 -32 c58 -8 130 -21 160 -29 l54 -14 -3 -53
c-3 -59 -15 -80 -34 -61 -17 17 -38 15 -38 -3 0 -8 27 -67 59 -132 33 -65 98
-214 145 -331 85 -213 86 -214 96 -340 7 -88 21 -168 47 -262 55 -205 56 -191
-17 -223 -35 -15 -66 -24 -71 -22 -4 3 -13 22 -20 43 -6 20 -31 75 -54 122
-52 104 -62 139 -80 284 -8 61 -18 123 -24 137 -5 14 -36 59 -69 101 -34 42
-72 99 -87 128 -14 28 -59 86 -98 129 -40 42 -85 95 -100 118 l-28 41 29 41
c30 41 30 44 28 149 l-3 107 -47 -1 c-52 0 -52 2 -26 72 9 23 14 25 43 20 17
-3 80 -13 138 -21z m929 -21 c0 -14 -3 -14 -15 -4 -8 7 -15 14 -15 16 0 2 7 4
15 4 8 0 15 -7 15 -16z m-33 -61 c-13 -13 -19 -14 -29 -5 -9 9 -8 12 5 12 9 0
17 8 17 17 0 13 3 14 12 5 10 -9 8 -16 -5 -29z m-1029 -108 c3 -89 2 -91 -27
-119 l-29 -28 -21 57 c-21 55 -28 139 -13 161 4 7 18 14 32 17 54 10 55 8 58
-88z m971 -13 c15 -84 9 -125 -17 -120 -37 7 -51 134 -20 191 15 28 23 11 37
-71z m-639 -5 c0 -18 -2 -19 -10 -7 -13 20 -13 43 0 35 6 -3 10 -16 10 -28z
m2322 -163 c16 -8 32 -22 35 -30 8 -21 50 -40 104 -48 42 -6 48 -10 62 -46 15
-38 15 -41 -6 -55 -26 -18 -90 -19 -168 -3 -50 10 -60 9 -84 -6 -19 -13 -25
-24 -23 -44 3 -25 12 -30 98 -59 100 -33 99 -44 -1 -18 -44 12 -64 13 -80 5
-27 -15 -41 -55 -33 -95 4 -26 1 -38 -15 -54 l-21 -21 -43 26 c-75 47 -124 92
-171 158 -25 36 -46 67 -46 71 0 10 83 -51 114 -84 35 -37 74 -41 102 -10 15
17 19 39 21 113 1 50 3 109 5 130 2 22 -2 41 -8 43 -15 5 -27 -65 -28 -167 -1
-47 -5 -91 -9 -97 -13 -21 -43 -15 -61 11 -8 14 -36 39 -61 56 -27 19 -45 39
-45 50 0 32 150 175 196 188 47 13 127 6 166 -14z m-1967 -38 c65 -31 91 -55
158 -144 67 -89 87 -105 173 -137 169 -64 154 -62 252 -31 114 38 228 44 382
21 175 -26 267 -22 370 14 47 17 97 31 113 31 25 0 27 -2 20 -27 -12 -45 -6
-77 16 -92 12 -7 21 -20 21 -28 0 -21 39 -93 50 -93 14 0 12 15 -6 58 -8 20
-17 66 -20 102 l-5 65 25 -40 c56 -88 151 -160 242 -184 45 -12 54 -27 54 -90
0 -29 -2 -32 -16 -20 -23 19 -33 -4 -35 -76 -1 -49 -2 -54 -8 -29 -18 73 -37
71 -44 -4 -6 -68 -32 -125 -77 -167 -17 -16 -36 -38 -41 -47 -14 -25 17 -79
96 -168 37 -41 78 -96 91 -122 38 -74 78 -114 128 -127 43 -11 75 -35 62 -48
-4 -4 -36 -9 -71 -11 l-64 -4 -64 61 c-35 33 -68 61 -72 61 -5 0 -19 10 -32
22 -23 21 -23 21 -39 2 -15 -18 -15 -18 -9 4 8 28 -12 82 -30 82 -6 0 -17 -10
-23 -22 -11 -23 -11 -23 -11 -2 -1 27 -29 40 -38 18 -4 -12 -13 -2 -30 34 -13
28 -39 62 -58 77 -20 14 -44 44 -55 66 -19 37 -40 52 -40 28 0 -5 -4 -7 -10
-4 -19 12 -10 46 30 112 57 96 67 165 23 171 -32 5 -60 -46 -74 -135 -9 -59
-16 -75 -36 -89 -23 -14 -26 -14 -45 3 -28 25 -78 27 -78 2 0 -30 -15 -23 -60
29 -26 29 -44 42 -47 35 -7 -20 -19 -15 -31 12 -15 33 -32 32 -32 -2 0 -25 -3
-23 -61 32 -54 52 -63 57 -94 52 -42 -7 -60 12 -69 72 -13 82 -50 126 -81 95
-24 -24 -18 -58 20 -113 19 -28 35 -54 35 -59 0 -4 -18 -25 -39 -46 -22 -22
-45 -52 -52 -67 -7 -18 -33 -42 -68 -63 -64 -38 -98 -50 -196 -66 -120 -20
-207 -71 -236 -141 -13 -33 -18 -34 -43 -16 -16 12 -17 19 -6 71 14 70 38 98
115 139 55 30 63 38 97 107 43 86 46 100 18 107 -26 7 -25 27 1 64 21 30 17
54 -7 45 -29 -11 -12 14 38 58 29 25 56 46 60 46 4 0 15 14 24 31 22 43 5 61
-34 37 -65 -42 -109 -58 -159 -58 -61 0 -68 11 -18 29 19 7 35 18 35 26 0 10
-20 12 -87 9 l-88 -4 54 13 c83 18 77 36 -11 35 -51 -1 -83 3 -105 15 -44 23
-42 36 5 27 49 -9 67 -3 51 16 -6 8 -19 14 -28 14 -20 0 -99 49 -123 76 -16
18 -15 19 19 19 20 0 38 5 40 12 2 6 -20 30 -49 53 -64 51 -69 60 -29 60 43 0
40 25 -6 49 -37 20 -37 20 -10 21 38 0 36 29 -3 36 -16 4 -27 10 -24 15 10 16
58 9 109 -15z m-643 -120 c23 -39 61 -93 85 -120 23 -26 43 -56 43 -67 0 -30
-119 -282 -148 -312 -14 -15 -51 -41 -82 -59 -68 -38 -147 -97 -272 -205 -53
-46 -101 -83 -107 -83 -10 0 -91 88 -91 100 0 16 160 209 201 242 24 19 75 54
112 78 77 48 91 69 106 160 6 36 28 131 48 212 43 167 40 166 105 54z m-502
44 c0 -13 -1 -13 -10 0 -5 8 -10 22 -10 30 0 13 1 13 10 0 5 -8 10 -22 10 -30z
m3360 0 c0 -11 -4 -20 -10 -20 -5 0 -10 2 -10 4 0 2 -3 11 -6 20 -4 11 -1 16
10 16 9 0 16 -8 16 -20z m-2285 -10 c3 -5 2 -10 -4 -10 -5 0 -13 5 -16 10 -3
6 -2 10 4 10 5 0 13 -4 16 -10z m-454 -145 c6 -11 -6 -2 -25 20 -20 22 -36 45
-35 50 0 12 46 -41 60 -70z m2505 57 c7 -4 13 -16 15 -27 3 -11 14 -21 26 -23
12 -2 27 -10 34 -18 13 -15 -118 30 -136 47 -19 19 36 38 61 21z m-453 -38
c13 -13 -3 -20 -37 -16 -20 2 -36 8 -36 13 0 10 63 12 73 3z m579 -23 c25 -16
49 -39 53 -51 11 -34 -1 -34 -27 0 -12 18 -39 43 -58 56 -50 34 -23 30 32 -5z
m-486 -65 c23 -29 68 -72 100 -96 81 -60 83 -63 49 -50 -87 32 -155 93 -195
170 -22 42 -27 78 -7 46 7 -10 31 -42 53 -70z m-114 4 c-2 -17 -8 -33 -13 -36
-10 -6 -11 11 -3 44 9 33 21 27 16 -8z m-1506 -38 c-4 -3 -14 2 -24 12 -16 18
-16 18 6 6 13 -6 21 -14 18 -18z m1884 -112 c0 -5 -5 -10 -11 -10 -5 0 -7 5
-4 10 3 6 8 10 11 10 2 0 4 -4 4 -10z m-1446 -34 c-6 -16 -54 -51 -54 -39 0
10 42 53 51 53 5 0 6 -6 3 -14z m302 -161 c19 -46 17 -55 -6 -26 -18 21 -28
61 -14 61 3 0 12 -16 20 -35z m1101 -12 c-3 -10 -5 -4 -5 12 0 17 2 24 5 18 2
-7 2 -21 0 -30z m-1529 -13 c-14 -22 -24 -19 -15 5 4 8 11 15 17 15 6 0 6 -7
-2 -20z m1082 -105 c-7 -24 -18 -49 -26 -55 -10 -9 -10 -2 1 39 14 54 24 75
32 67 3 -3 0 -26 -7 -51z m377 23 c-3 -7 -5 -2 -5 12 0 14 2 19 5 13 2 -7 2
-19 0 -25z m-1443 -23 c-4 -8 -8 -15 -10 -15 -2 0 -4 7 -4 15 0 8 4 15 10 15
5 0 7 -7 4 -15z m514 -41 c58 -49 57 -80 -4 -171 -108 -160 -111 -210 -17
-314 29 -32 42 -39 73 -39 36 0 70 -20 70 -41 0 -5 -33 -9 -74 -9 l-74 0 -79
91 c-116 134 -119 143 -77 216 22 36 27 57 26 106 -1 61 0 62 38 89 28 20 42
38 50 68 6 22 14 40 19 40 4 0 26 -16 49 -36z m42 26 c0 -5 -2 -10 -4 -10 -3
0 -8 5 -11 10 -3 6 -1 10 4 10 6 0 11 -4 11 -10z m-150 -54 c-7 -14 -19 -28
-28 -31 -13 -5 -13 -3 0 17 8 13 18 29 22 36 14 24 20 3 6 -22z m360 -67 c0
-5 -4 -9 -10 -9 -5 0 -10 7 -10 16 0 8 5 12 10 9 6 -3 10 -10 10 -16z m-2280
-44 c30 -30 33 -38 22 -53 -7 -9 -20 -34 -29 -54 -16 -37 -18 -38 -68 -38 -92
0 -101 44 -24 126 29 30 55 54 58 54 4 0 22 -16 41 -35z m2525 -105 c4 -6 18
-10 31 -7 12 2 27 1 33 -2 13 -9 -5 -138 -23 -166 -14 -21 -16 -22 -140 -79
-107 -49 -123 -47 -92 12 19 37 44 57 89 73 48 17 64 34 48 53 -9 11 -6 17 14
30 28 18 34 56 9 56 -11 0 -14 6 -9 21 5 13 2 25 -6 29 -10 7 -10 16 1 52 l13
43 12 -51 c7 -28 16 -57 20 -64z m39 45 c3 -8 1 -15 -3 -15 -5 0 -11 7 -15 15
-3 8 -1 15 3 15 5 0 11 -7 15 -15z m-2741 -52 c11 -50 22 -58 94 -63 l68 -5 7
-73 c7 -83 20 -103 86 -134 29 -14 42 -26 42 -41 0 -19 -5 -20 -83 -15 -46 3
-95 12 -108 19 -44 24 -242 237 -236 253 7 18 97 85 113 86 6 0 14 -12 17 -27z
m1376 -25 l33 -52 -21 -43 c-12 -24 -28 -47 -38 -50 -31 -12 -65 19 -87 82
l-22 60 51 27 c27 15 50 27 51 28 1 0 16 -23 33 -52z m1266 -18 c3 -5 -1 -10
-10 -10 -9 0 -13 5 -10 10 3 6 8 10 10 10 2 0 7 -4 10 -10z m-1228 -90 c-7
-17 -13 -26 -15 -21 -3 10 15 51 22 51 3 0 -1 -14 -7 -30z m75 3 c13 -12 14
-21 7 -46 -5 -18 -6 -51 -3 -74 5 -34 3 -44 -10 -49 -27 -10 -62 4 -74 31 -10
22 -8 37 15 95 27 68 31 71 65 43z m1118 7 c0 -5 -8 -10 -17 -10 -15 0 -16 2
-3 10 19 12 20 12 20 0z m-951 -42 c34 1 71 4 81 7 9 3 23 -1 29 -9 34 -40
-84 -119 -209 -140 l-36 -6 -2 52 c-1 29 0 66 4 81 5 26 9 28 37 21 18 -4 61
-6 96 -6z m-313 -38 c32 0 34 -2 28 -25 -4 -16 1 -37 15 -61 12 -20 19 -39 17
-42 -3 -3 -28 -7 -55 -10 l-49 -4 -11 38 c-6 22 -11 56 -11 78 0 31 3 37 16
32 9 -3 31 -6 50 -6z m1730 -47 c-7 -7 -26 7 -26 19 0 6 6 6 15 -2 9 -7 13
-15 11 -17z"/>
<path d="M6662 5728 c-21 -21 -15 -40 11 -33 30 10 41 21 33 34 -9 14 -29 14
-44 -1z"/>
<path d="M4727 4110 c-55 -43 -23 -130 48 -130 40 0 75 32 75 69 0 64 -73 100
-123 61z"/>
<path d="M2710 4095 c-113 -32 -201 -110 -241 -214 -32 -80 -31 -213 1 -295
29 -76 95 -147 169 -183 51 -25 66 -28 166 -28 105 0 113 2 165 31 61 34 127
111 111 127 -7 7 -27 -5 -60 -35 -130 -117 -332 -76 -400 81 -39 93 -45 247
-11 336 75 200 310 213 406 24 44 -88 60 -72 47 47 l-8 78 -60 19 c-84 25
-216 31 -285 12z"/>
<path d="M4970 4088 c0 -6 8 -20 18 -31 15 -17 17 -49 20 -302 3 -291 3 -292
-36 -367 -6 -12 331 -9 390 3 112 24 202 91 248 184 22 44 25 63 25 165 0 106
-2 120 -28 172 -48 98 -140 158 -272 178 -101 14 -365 13 -365 -2z m375 -47
c125 -58 182 -227 141 -415 -31 -137 -102 -199 -245 -212 -65 -6 -76 -5 -87
11 -11 15 -14 83 -14 320 0 166 3 305 7 308 15 15 158 6 198 -12z"/>
<path d="M7034 3999 c-28 -50 -90 -99 -127 -99 -32 0 -18 -29 16 -32 l32 -3 5
-205 c5 -217 8 -232 56 -269 54 -43 197 -19 231 38 17 27 0 37 -29 17 -12 -9
-39 -16 -60 -16 -64 0 -68 15 -68 242 l0 198 75 0 c60 0 75 3 75 15 0 12 -15
15 -75 15 l-75 0 0 75 c0 92 -16 99 -56 24z"/>
<path d="M3286 3896 c-67 -25 -91 -49 -90 -90 1 -35 18 -66 35 -66 5 0 14 12
20 27 31 83 107 129 169 103 38 -16 59 -55 63 -116 l2 -47 -85 -18 c-167 -34
-240 -89 -240 -181 0 -84 63 -138 163 -138 65 0 88 9 133 52 l31 29 13 -31 c7
-17 21 -35 31 -40 31 -17 94 -12 123 11 32 25 33 39 2 39 -13 0 -28 6 -34 13
-6 7 -12 84 -14 187 -3 165 -4 177 -26 208 -13 18 -38 40 -55 49 -44 23 -189
28 -241 9z m204 -310 c0 -76 -3 -88 -26 -115 -30 -36 -81 -49 -123 -31 -55 22
-69 107 -26 159 26 30 111 70 153 70 21 1 22 -2 22 -83z"/>
<path d="M3808 3886 c-37 -11 -70 -24 -73 -28 -4 -4 2 -19 14 -34 20 -25 21
-39 21 -209 0 -169 -1 -183 -20 -200 -11 -10 -20 -22 -20 -27 0 -4 47 -8 105
-8 58 0 105 3 105 6 0 3 -9 17 -20 31 -18 23 -20 41 -20 193 0 164 1 168 25
194 49 53 117 57 155 9 18 -24 20 -40 20 -204 0 -144 -3 -180 -15 -193 -31
-30 -17 -36 85 -36 55 0 100 3 100 7 0 3 -8 15 -17 26 -15 16 -18 44 -21 187
l-3 169 34 38 c30 32 41 38 77 38 33 0 47 -6 65 -28 31 -35 38 -87 34 -250 -3
-111 -7 -138 -21 -154 -10 -11 -18 -23 -18 -26 0 -4 47 -7 105 -7 65 0 105 4
105 10 0 6 -6 13 -14 16 -27 10 -36 67 -36 226 0 172 -7 204 -54 247 -20 19
-40 26 -85 29 -77 6 -124 -11 -163 -58 l-32 -38 -18 29 c-27 45 -75 69 -135
69 -64 0 -91 -10 -137 -50 l-36 -32 -6 41 c-4 23 -9 41 -13 40 -3 -1 -36 -11
-73 -23z"/>
<path d="M4753 3887 c-55 -16 -73 -26 -73 -39 0 -10 4 -18 8 -18 23 0 32 -59
32 -208 0 -138 -3 -163 -20 -197 -11 -22 -20 -41 -20 -42 0 -2 47 -3 105 -3
58 0 105 3 105 7 0 4 -10 17 -22 31 -22 23 -23 31 -26 258 -2 129 -7 233 -10
233 -4 -1 -40 -11 -79 -22z"/>
<path d="M5850 3899 c-86 -26 -122 -84 -84 -137 21 -31 28 -28 49 19 21 45 64
86 100 95 37 9 89 -13 108 -45 10 -17 17 -50 17 -79 l0 -49 -50 -7 c-119 -16
-228 -66 -257 -119 -19 -35 -16 -107 7 -145 25 -41 73 -62 139 -62 62 0 89 10
135 50 27 24 36 28 36 16 0 -9 11 -28 25 -41 32 -33 100 -35 139 -4 34 27 33
39 -3 39 -17 0 -31 6 -35 16 -3 9 -6 86 -6 173 0 143 -2 161 -22 201 -33 64
-72 83 -177 87 -47 1 -102 -2 -121 -8z m188 -326 l-3 -97 -35 -24 c-27 -19
-44 -23 -75 -18 -51 6 -75 35 -75 91 0 57 34 97 103 124 89 34 88 35 85 -76z"/>
<path d="M6366 3886 c-38 -12 -71 -27 -74 -34 -2 -6 6 -24 17 -38 19 -25 21
-40 21 -199 0 -157 -2 -175 -20 -198 -11 -14 -20 -28 -20 -31 0 -3 47 -6 105
-6 58 0 105 4 105 8 0 5 -9 17 -20 27 -19 17 -20 31 -20 193 l0 174 31 29 c60
56 138 46 171 -21 15 -29 18 -63 18 -191 0 -141 -2 -159 -20 -182 -11 -14 -20
-28 -20 -31 0 -3 47 -6 105 -6 58 0 105 3 105 7 0 4 -9 17 -21 29 -19 20 -21
35 -22 195 -2 152 -5 179 -22 213 -28 55 -64 78 -128 84 -69 5 -119 -11 -168
-55 l-39 -35 0 46 c0 25 -3 46 -7 45 -5 -1 -39 -11 -77 -23z"/>
<path d="M7453 3891 c-61 -29 -120 -94 -138 -154 -43 -146 7 -282 127 -341 69
-34 176 -36 243 -5 43 20 105 79 105 99 0 16 -26 11 -41 -7 -35 -42 -161 -58
-219 -28 -38 20 -75 70 -89 120 -22 80 -33 75 170 75 l181 0 -4 59 c-5 76 -46
145 -103 175 -57 30 -175 33 -232 7z m165 -36 c45 -37 70 -156 36 -169 -20 -8
-85 -8 -164 1 l-62 6 6 41 c10 61 38 109 77 128 46 24 72 22 107 -7z"/>
<path d="M5027 3232 c-45 -49 15 -146 61 -100 19 19 15 82 -6 101 -24 22 -35
21 -55 -1z"/>
<path d="M5145 3236 c-13 -9 -19 -26 -19 -50 0 -70 59 -87 85 -24 10 26 10 35
-2 57 -18 31 -38 37 -64 17z"/>
<path d="M4950 3134 c-26 -31 17 -95 54 -81 25 10 21 63 -6 81 -28 20 -32 20
-48 0z"/>
<path d="M5220 3130 c-26 -26 -26 -66 0 -80 17 -9 25 -6 45 14 29 29 31 48 9
70 -20 21 -30 20 -54 -4z"/>
<path d="M5084 3097 c-34 -19 -94 -104 -94 -132 0 -32 33 -46 73 -33 26 10 60
7 118 -7 30 -8 59 15 59 45 0 11 -15 35 -32 53 -18 19 -43 46 -55 61 -24 29
-37 31 -69 13z"/>
<path d="M2425 3080 c-3 -5 -3 -14 0 -20 4 -7 408 -10 1179 -10 970 0 1175 2
1185 13 6 8 8 17 4 20 -11 12 -2361 8 -2368 -3z"/>
<path d="M5430 3070 c0 -20 5 -20 1182 -18 1117 3 1183 4 1186 21 3 16 -58 17
-1182 17 -1180 0 -1186 0 -1186 -20z"/>
</g>
</svg>
